<?xml version="1.0" standalone="no"?><svg xmlns="http://www.w3.org/2000/svg" viewBox="0 0 1440 320"><path fill="#B8CCE4" fill-opacity="1" d="M0,160L40,181.3C80,203,160,245,240,245.3C320,245,400,203,480,176C560,149,640,139,720,160C800,181,880,235,960,234.7C1040,235,1120,181,1200,144C1280,107,1360,85,1400,74.7L1440,64L1440,320L1400,320C1360,320,1280,320,1200,320C1120,320,1040,320,960,320C880,320,800,320,720,320C640,320,560,320,480,320C400,320,320,320,240,320C160,320,80,320,40,320L0,320Z"></path></svg>